<svg width="184" height="108" viewBox="0 0 184 108" fill="none" xmlns="http://www.w3.org/2000/svg">
<g filter="url(#filter0_d)">
<rect x="22.5" y="20.5" width="139" height="63" rx="17.5" stroke="#F1696A" stroke-width="5"/>
</g>
<path d="M46.6166 47.7497V43.6712H45.0043L43.0409 47.7497H40L42.3864 42.7214C41.3489 42.0456 40.8301 41.0533 40.8301 39.7443C40.8301 38.595 41.2079 37.7064 41.9634 37.0785C42.719 36.4453 43.8071 36.1287 45.2278 36.1287H49.4261V47.7497H46.6166ZM43.6236 39.9917C43.6236 40.5823 43.7433 41.0107 43.9827 41.2767C44.2222 41.5428 44.6239 41.6758 45.1879 41.6758H46.6166V38.2917H45.2039C44.6452 38.2917 44.2408 38.438 43.9907 38.7307C43.7459 39.018 43.6236 39.4383 43.6236 39.9917Z" fill="#F1696A"/>
<path d="M61.6376 45.5787H57.7986L57.1281 47.7497H54.1351L58.3972 36.1287H61.031L65.325 47.7497H62.316L61.6376 45.5787ZM58.469 43.4158H60.9672L59.7141 39.3851L58.469 43.4158Z" fill="#F1696A"/>
<path d="M70.2895 43.1524H68.9646V47.7497H66.1631V36.1287H68.9646V40.6223H70.0421L72.2769 36.1287H75.669L72.4764 41.4922L76.068 47.7497H72.7557L70.2895 43.1524Z" fill="#F1696A"/>
<path d="M85.8852 38.2917H82.3973V47.7497H79.5958V38.2917H76.1718V36.1287H85.8852V38.2917Z" fill="#F1696A"/>
<path d="M93.8905 36.1287H96.692V47.7497H93.8905V40.4227L89.7163 47.7497H86.9148V36.1287H89.7163V43.4636L93.8905 36.1287Z" fill="#F1696A"/>
<path d="M98.408 47.7497V36.1287H102.582C104.077 36.1287 105.214 36.4027 105.99 36.9508C106.773 37.4989 107.164 38.2943 107.164 39.3372C107.164 39.9385 107.025 40.452 106.749 40.8777C106.472 41.3033 106.065 41.6173 105.527 41.8195C106.134 41.9791 106.6 42.2771 106.924 42.7134C107.249 43.1497 107.411 43.6818 107.411 44.3097C107.411 45.4484 107.049 46.305 106.326 46.8797C105.607 47.449 104.54 47.739 103.125 47.7497H98.408ZM101.21 42.8092V45.5947H103.045C103.551 45.5947 103.939 45.4803 104.211 45.2515C104.482 45.0174 104.618 44.6901 104.618 44.2698C104.618 43.3014 104.136 42.8145 103.173 42.8092H101.21ZM101.21 40.9734H102.67C103.282 40.9681 103.718 40.8564 103.979 40.6382C104.24 40.4201 104.37 40.0981 104.37 39.6725C104.37 39.1829 104.229 38.8318 103.947 38.6189C103.665 38.4008 103.21 38.2917 102.582 38.2917H101.21V40.9734Z" fill="#F1696A"/>
<path d="M118.673 47.7497H115.887V42.897H111.761V47.7497H108.959V36.1287H111.761V40.742H115.887V36.1287H118.673V47.7497Z" fill="#F1696A"/>
<path d="M123.254 40.1274H124.699C125.619 40.1274 126.433 40.2844 127.141 40.5983C127.849 40.9122 128.392 41.3565 128.769 41.9312C129.152 42.5005 129.344 43.155 129.344 43.8946C129.344 45.0386 128.918 45.9671 128.067 46.6802C127.221 47.3932 126.082 47.7497 124.651 47.7497H120.445V36.1287H123.254V40.1274ZM132.984 47.7497H130.19V36.1287H132.984V47.7497ZM123.254 42.2824V45.5947H124.691C125.26 45.5947 125.71 45.4351 126.04 45.1158C126.375 44.7965 126.543 44.3842 126.543 43.8787C126.543 43.3998 126.378 43.014 126.048 42.7214C125.718 42.4287 125.26 42.2824 124.675 42.2824H123.254Z" fill="#F1696A"/>
<path d="M141.524 36.1287H144.325V47.7497H141.524V40.4227L137.349 47.7497H134.548V36.1287H137.349V43.4636L141.524 36.1287ZM142.41 33C142.41 33.729 142.141 34.3196 141.603 34.7719C141.066 35.2242 140.35 35.4503 139.456 35.4503C138.563 35.4503 137.847 35.2242 137.309 34.7719C136.772 34.3196 136.503 33.729 136.503 33H138.331C138.331 33.3193 138.43 33.5693 138.626 33.7503C138.829 33.9258 139.105 34.0136 139.456 34.0136C139.808 34.0136 140.079 33.9285 140.271 33.7582C140.467 33.5826 140.566 33.3299 140.566 33H142.41Z" fill="#F1696A"/>
<path d="M49.45 57.7511H44.3978V67.2091H41.5963V55.5882H49.45V57.7511Z" fill="#F1696A"/>
<path d="M53.5285 63.2663V67.2091H50.727V55.5882H55.3642C56.2528 55.5882 57.0377 55.7531 57.7187 56.083C58.4052 56.4076 58.9346 56.8732 59.3071 57.4798C59.6848 58.081 59.8737 58.7648 59.8737 59.531C59.8737 60.6644 59.4667 61.5716 58.6526 62.2527C57.8438 62.9284 56.7317 63.2663 55.3163 63.2663H53.5285ZM53.5285 61.1033H55.3642C55.907 61.1033 56.3193 60.9677 56.6014 60.6963C56.8887 60.4249 57.0323 60.0418 57.0323 59.547C57.0323 59.0042 56.886 58.5706 56.5934 58.246C56.3007 57.9214 55.9016 57.7565 55.3962 57.7511H53.5285V61.1033Z" fill="#F1696A"/>
<path d="M66.5542 65.0382H62.7151L62.0447 67.2091H59.0516L63.3137 55.5882H65.9476L70.2416 67.2091H67.2326L66.5542 65.0382ZM63.3856 62.8752H65.8837L64.6307 58.8446L63.3856 62.8752Z" fill="#F1696A"/>
<path d="M81.671 62.6677H80.2503V67.2091H77.4648V62.6677H76.0201L73.7853 67.2091H70.3054L73.8093 60.8639L70.4092 55.5882H73.945L76.3234 60.1456H77.4648V55.5882H80.2503V60.1456H81.3837L83.6584 55.5882H87.1861L83.8739 60.8479L87.3059 67.2091H83.81L81.671 62.6677Z" fill="#F1696A"/>
<path d="M99.1583 70.0665H96.6441V67.2091H90.3149V70.0585H87.7209L87.5214 65.0541H88.3435C88.7745 64.7668 89.1203 64.2746 89.381 63.5776C89.6471 62.8752 89.836 61.8696 89.9477 60.5606L90.3069 55.5882H98.2165V65.0541H99.4536L99.1583 70.0665ZM91.5121 65.0541H95.423V57.7511H92.9487L92.7332 60.6564C92.5736 62.54 92.1666 64.0059 91.5121 65.0541Z" fill="#F1696A"/>
<path d="M107.148 65.0382H103.309L102.638 67.2091H99.6451L103.907 55.5882H106.541L110.835 67.2091H107.826L107.148 65.0382ZM103.979 62.8752H106.477L105.224 58.8446L103.979 62.8752Z" fill="#F1696A"/>
<path d="M121.402 67.2091H118.617V62.3564H114.491V67.2091H111.689V55.5882H114.491V60.2014H118.617V55.5882H121.402V67.2091Z" fill="#F1696A"/>
<path d="M129.998 55.5882H132.8V67.2091H129.998V59.8822L125.824 67.2091H123.023V55.5882H125.824V62.9231L129.998 55.5882Z" fill="#F1696A"/>
<path d="M144.229 67.2091H141.444V62.3564H137.317V67.2091H134.516V55.5882H137.317V60.2014H141.444V55.5882H144.229V67.2091Z" fill="#F1696A"/>
<defs>
<filter id="filter0_d" x="0" y="0" width="184" height="108" filterUnits="userSpaceOnUse" color-interpolation-filters="sRGB">
<feFlood flood-opacity="0" result="BackgroundImageFix"/>
<feColorMatrix in="SourceAlpha" type="matrix" values="0 0 0 0 0 0 0 0 0 0 0 0 0 0 0 0 0 0 127 0"/>
<feOffset dy="2"/>
<feGaussianBlur stdDeviation="10"/>
<feColorMatrix type="matrix" values="0 0 0 0 1 0 0 0 0 0.433333 0 0 0 0 0.433333 0 0 0 0.19 0"/>
<feBlend mode="normal" in2="BackgroundImageFix" result="effect1_dropShadow"/>
<feBlend mode="normal" in="SourceGraphic" in2="effect1_dropShadow" result="shape"/>
</filter>
</defs>
</svg>
